<mxfile host="app.diagrams.net" agent="Mozilla/5.0 (Windows NT 10.0; Win64; x64) AppleWebKit/537.36 (KHTML, like Gecko) Chrome/137.0.0.0 Safari/537.36" version="27.1.4">
  <diagram name="Page-1" id="e7e014a7-5840-1c2e-5031-d8a46d1fe8dd">
    <mxGraphModel dx="1463" dy="837" grid="1" gridSize="10" guides="1" tooltips="1" connect="1" arrows="1" fold="1" page="1" pageScale="1" pageWidth="1169" pageHeight="826" background="none" math="0" shadow="0">
      <root>
        <mxCell id="0" />
        <mxCell id="1" parent="0" />
        <mxCell id="2" value="Admin" style="swimlane;whiteSpace=wrap;fontFamily=Times New Roman;fontSize=13;" parent="1" vertex="1">
          <mxGeometry x="200" y="128" width="244.5" height="570" as="geometry" />
        </mxCell>
        <mxCell id="fW8i9NKmJXskCFU-h9eN-45" style="edgeStyle=orthogonalEdgeStyle;rounded=0;orthogonalLoop=1;jettySize=auto;html=1;entryX=0.5;entryY=0;entryDx=0;entryDy=0;fontFamily=Times New Roman;fontSize=13;" parent="2" source="5" target="7" edge="1">
          <mxGeometry relative="1" as="geometry" />
        </mxCell>
        <mxCell id="5" value="" style="ellipse;shape=startState;fillColor=#000000;strokeColor=#FCF9FF;fontFamily=Times New Roman;fontSize=13;" parent="2" vertex="1">
          <mxGeometry x="107.25" y="40" width="30" height="30" as="geometry" />
        </mxCell>
        <mxCell id="7" value="Login" style="fontStyle=0;fontFamily=Times New Roman;fontSize=13;" parent="2" vertex="1">
          <mxGeometry x="67.25" y="105" width="110" height="50" as="geometry" />
        </mxCell>
        <mxCell id="8" value="Input Alternatif&#xa;dan Kriteria" style="fontStyle=0;fontFamily=Times New Roman;fontSize=13;" parent="2" vertex="1">
          <mxGeometry x="67.25" y="192" width="110" height="50" as="geometry" />
        </mxCell>
        <mxCell id="10" value="Input Bobot Alternatif&#xa;dan Kriteria" style="fontStyle=0;fontFamily=Times New Roman;fontSize=13;" parent="2" vertex="1">
          <mxGeometry x="52.25" y="292" width="140" height="50" as="geometry" />
        </mxCell>
        <mxCell id="3" value="Sistem" style="swimlane;whiteSpace=wrap;fontFamily=Times New Roman;fontSize=13;" parent="1" vertex="1">
          <mxGeometry x="444.5" y="128" width="245.5" height="570" as="geometry" />
        </mxCell>
        <mxCell id="16" value="Menampilkan Alternatif&#xa;dan Kriteria" style="fontFamily=Times New Roman;fontSize=13;" parent="3" vertex="1">
          <mxGeometry x="50.5" y="192" width="144.5" height="50" as="geometry" />
        </mxCell>
        <mxCell id="30" value="Tampilkan&#xa;Perangkingan" style="fontFamily=Times New Roman;fontSize=13;" parent="3" vertex="1">
          <mxGeometry x="55.5" y="362" width="134.5" height="50" as="geometry" />
        </mxCell>
        <mxCell id="fW8i9NKmJXskCFU-h9eN-43" value="Benar ?" style="rhombus;fillColor=light-dark(#ffffff, #1a1a00);strokeColor=#000000;fontFamily=Times New Roman;fontSize=13;" parent="3" vertex="1">
          <mxGeometry x="82.25" y="111" width="80" height="40" as="geometry" />
        </mxCell>
        <mxCell id="fW8i9NKmJXskCFU-h9eN-47" value="Tidak" style="text;html=1;align=center;verticalAlign=middle;resizable=0;points=[];autosize=1;strokeColor=none;fillColor=none;fontFamily=Times New Roman;fontSize=13;" parent="3" vertex="1">
          <mxGeometry x="145" y="81" width="50" height="30" as="geometry" />
        </mxCell>
        <mxCell id="38" value="" style="ellipse;shape=endState;fillColor=#000000;strokeColor=#000000;fontFamily=Times New Roman;fontSize=13;" parent="3" vertex="1">
          <mxGeometry x="94.5" y="498" width="30" height="30" as="geometry" />
        </mxCell>
        <mxCell id="bP2Ng5Jlli29dzLGDqey-47" style="edgeStyle=orthogonalEdgeStyle;rounded=0;orthogonalLoop=1;jettySize=auto;html=1;entryX=0.5;entryY=0;entryDx=0;entryDy=0;" edge="1" parent="3" target="30">
          <mxGeometry relative="1" as="geometry">
            <mxPoint x="122.75000000000023" y="338" as="sourcePoint" />
          </mxGeometry>
        </mxCell>
        <mxCell id="bP2Ng5Jlli29dzLGDqey-43" value="Menampilkan Bobot&#xa;Alternatif dan Kriteria" style="fontFamily=Times New Roman;fontSize=13;" vertex="1" parent="3">
          <mxGeometry x="50.5" y="292" width="144.5" height="50" as="geometry" />
        </mxCell>
        <mxCell id="4" value="Pegawai" style="swimlane;whiteSpace=wrap;fontFamily=Times New Roman;fontSize=13;" parent="1" vertex="1">
          <mxGeometry x="690" y="128" width="240" height="570" as="geometry" />
        </mxCell>
        <mxCell id="33" value="Lihat Rangking" style="fontStyle=0;fontFamily=Times New Roman;fontSize=13;" parent="4" vertex="1">
          <mxGeometry x="65" y="422" width="110" height="50" as="geometry" />
        </mxCell>
        <mxCell id="fW8i9NKmJXskCFU-h9eN-42" style="edgeStyle=orthogonalEdgeStyle;rounded=0;orthogonalLoop=1;jettySize=auto;html=1;entryX=0;entryY=0.5;entryDx=0;entryDy=0;fontFamily=Times New Roman;fontSize=13;" parent="1" source="7" target="fW8i9NKmJXskCFU-h9eN-43" edge="1">
          <mxGeometry relative="1" as="geometry">
            <mxPoint x="464.5" y="263" as="targetPoint" />
          </mxGeometry>
        </mxCell>
        <mxCell id="bP2Ng5Jlli29dzLGDqey-39" style="edgeStyle=orthogonalEdgeStyle;rounded=0;orthogonalLoop=1;jettySize=auto;html=1;entryX=0.5;entryY=0;entryDx=0;entryDy=0;exitX=1;exitY=0.5;exitDx=0;exitDy=0;" edge="1" parent="1" source="30" target="33">
          <mxGeometry relative="1" as="geometry">
            <Array as="points">
              <mxPoint x="810" y="515" />
            </Array>
          </mxGeometry>
        </mxCell>
        <mxCell id="bP2Ng5Jlli29dzLGDqey-42" style="edgeStyle=orthogonalEdgeStyle;rounded=0;orthogonalLoop=1;jettySize=auto;html=1;entryX=0;entryY=0.5;entryDx=0;entryDy=0;" edge="1" parent="1" source="8" target="16">
          <mxGeometry relative="1" as="geometry" />
        </mxCell>
        <mxCell id="bP2Ng5Jlli29dzLGDqey-44" style="edgeStyle=orthogonalEdgeStyle;rounded=0;orthogonalLoop=1;jettySize=auto;html=1;entryX=0;entryY=0.5;entryDx=0;entryDy=0;" edge="1" parent="1" source="10" target="bP2Ng5Jlli29dzLGDqey-43">
          <mxGeometry relative="1" as="geometry" />
        </mxCell>
        <mxCell id="bP2Ng5Jlli29dzLGDqey-45" style="edgeStyle=orthogonalEdgeStyle;rounded=0;orthogonalLoop=1;jettySize=auto;html=1;entryX=0.5;entryY=0;entryDx=0;entryDy=0;exitX=0.5;exitY=1;exitDx=0;exitDy=0;" edge="1" parent="1" source="fW8i9NKmJXskCFU-h9eN-43" target="8">
          <mxGeometry relative="1" as="geometry">
            <Array as="points">
              <mxPoint x="567" y="300" />
              <mxPoint x="322" y="300" />
            </Array>
          </mxGeometry>
        </mxCell>
        <mxCell id="bP2Ng5Jlli29dzLGDqey-46" style="edgeStyle=orthogonalEdgeStyle;rounded=0;orthogonalLoop=1;jettySize=auto;html=1;entryX=0.5;entryY=0;entryDx=0;entryDy=0;" edge="1" parent="1" source="16" target="10">
          <mxGeometry relative="1" as="geometry">
            <Array as="points">
              <mxPoint x="598" y="400" />
              <mxPoint x="322" y="400" />
              <mxPoint x="322" y="410" />
              <mxPoint x="322" y="410" />
            </Array>
          </mxGeometry>
        </mxCell>
        <mxCell id="bP2Ng5Jlli29dzLGDqey-48" style="edgeStyle=orthogonalEdgeStyle;rounded=0;orthogonalLoop=1;jettySize=auto;html=1;entryX=0.75;entryY=0;entryDx=0;entryDy=0;" edge="1" parent="1" source="fW8i9NKmJXskCFU-h9eN-43" target="7">
          <mxGeometry relative="1" as="geometry">
            <Array as="points">
              <mxPoint x="567" y="213" />
              <mxPoint x="350" y="213" />
            </Array>
          </mxGeometry>
        </mxCell>
        <mxCell id="bP2Ng5Jlli29dzLGDqey-49" style="edgeStyle=orthogonalEdgeStyle;rounded=0;orthogonalLoop=1;jettySize=auto;html=1;entryX=0.5;entryY=0;entryDx=0;entryDy=0;" edge="1" parent="1" source="33" target="38">
          <mxGeometry relative="1" as="geometry">
            <Array as="points">
              <mxPoint x="554" y="575" />
            </Array>
          </mxGeometry>
        </mxCell>
      </root>
    </mxGraphModel>
  </diagram>
</mxfile>
